<svg width="16" height="19" viewBox="0 0 16 19" fill="none" xmlns="http://www.w3.org/2000/svg">
<g clip-path="url(#clip0_65_316)">
<path d="M5.757 1.32988C5.81335 1.36784 5.86249 1.41791 5.90163 1.47724C5.94077 1.53657 5.96914 1.604 5.98511 1.67567C6.00108 1.74733 6.00435 1.82184 5.99472 1.89493C5.98509 1.96801 5.96276 2.03825 5.929 2.10163L3.383 6.875H12.617L10.07 2.10163C10.0018 1.97363 9.98167 1.82041 10.0139 1.67568C10.0462 1.53095 10.1282 1.40656 10.242 1.32988C10.3558 1.2532 10.492 1.2305 10.6206 1.26679C10.7493 1.30308 10.8598 1.39538 10.928 1.52338L13.783 6.875H15C15.2652 6.875 15.5196 6.99353 15.7071 7.20451C15.8946 7.41548 16 7.70163 16 8V9.125C16 9.42337 15.8946 9.70952 15.7071 9.9205C15.5196 10.1315 15.2652 10.25 15 10.25V15.3125C15 16.0584 14.7366 16.7738 14.2678 17.3012C13.7989 17.8287 13.163 18.125 12.5 18.125H3.5C2.83696 18.125 2.20107 17.8287 1.73223 17.3012C1.26339 16.7738 1 16.0584 1 15.3125V10.25C0.734784 10.25 0.48043 10.1315 0.292893 9.9205C0.105357 9.70952 0 9.42337 0 9.125V8C0 7.70163 0.105357 7.41548 0.292893 7.20451C0.48043 6.99353 0.734784 6.875 1 6.875H2.217L5.07 1.52338C5.10374 1.45999 5.14825 1.4047 5.20099 1.36066C5.25373 1.31663 5.31366 1.28472 5.37737 1.26675C5.44107 1.24878 5.5073 1.24511 5.57227 1.25594C5.63723 1.26677 5.70067 1.29189 5.757 1.32988ZM2 10.25V15.3125C2 15.7601 2.15804 16.1893 2.43934 16.5057C2.72064 16.8222 3.10218 17 3.5 17H12.5C12.8978 17 13.2794 16.8222 13.5607 16.5057C13.842 16.1893 14 15.7601 14 15.3125V10.25H2ZM1 8V9.125H15V8H1ZM4 11.375C4.13261 11.375 4.25979 11.4343 4.35355 11.5398C4.44732 11.6452 4.5 11.7883 4.5 11.9375V15.3125C4.5 15.4617 4.44732 15.6048 4.35355 15.7102C4.25979 15.8157 4.13261 15.875 4 15.875C3.86739 15.875 3.74021 15.8157 3.64645 15.7102C3.55268 15.6048 3.5 15.4617 3.5 15.3125V11.9375C3.5 11.7883 3.55268 11.6452 3.64645 11.5398C3.74021 11.4343 3.86739 11.375 4 11.375ZM6 11.375C6.13261 11.375 6.25979 11.4343 6.35355 11.5398C6.44732 11.6452 6.5 11.7883 6.5 11.9375V15.3125C6.5 15.4617 6.44732 15.6048 6.35355 15.7102C6.25979 15.8157 6.13261 15.875 6 15.875C5.86739 15.875 5.74021 15.8157 5.64645 15.7102C5.55268 15.6048 5.5 15.4617 5.5 15.3125V11.9375C5.5 11.7883 5.55268 11.6452 5.64645 11.5398C5.74021 11.4343 5.86739 11.375 6 11.375ZM8 11.375C8.13261 11.375 8.25979 11.4343 8.35355 11.5398C8.44732 11.6452 8.5 11.7883 8.5 11.9375V15.3125C8.5 15.4617 8.44732 15.6048 8.35355 15.7102C8.25979 15.8157 8.13261 15.875 8 15.875C7.86739 15.875 7.74021 15.8157 7.64645 15.7102C7.55268 15.6048 7.5 15.4617 7.5 15.3125V11.9375C7.5 11.7883 7.55268 11.6452 7.64645 11.5398C7.74021 11.4343 7.86739 11.375 8 11.375ZM10 11.375C10.1326 11.375 10.2598 11.4343 10.3536 11.5398C10.4473 11.6452 10.5 11.7883 10.5 11.9375V15.3125C10.5 15.4617 10.4473 15.6048 10.3536 15.7102C10.2598 15.8157 10.1326 15.875 10 15.875C9.86739 15.875 9.74021 15.8157 9.64645 15.7102C9.55268 15.6048 9.5 15.4617 9.5 15.3125V11.9375C9.5 11.7883 9.55268 11.6452 9.64645 11.5398C9.74021 11.4343 9.86739 11.375 10 11.375ZM12 11.375C12.1326 11.375 12.2598 11.4343 12.3536 11.5398C12.4473 11.6452 12.5 11.7883 12.5 11.9375V15.3125C12.5 15.4617 12.4473 15.6048 12.3536 15.7102C12.2598 15.8157 12.1326 15.875 12 15.875C11.8674 15.875 11.7402 15.8157 11.6464 15.7102C11.5527 15.6048 11.5 15.4617 11.5 15.3125V11.9375C11.5 11.7883 11.5527 11.6452 11.6464 11.5398C11.7402 11.4343 11.8674 11.375 12 11.375Z" fill="#36BBCE"/>
</g>
<defs>
<clipPath id="clip0_65_316">
<rect width="16" height="18" fill="white" transform="translate(0 0.125)"/>
</clipPath>
</defs>
</svg>
