<svg width="100" height="100" viewBox="0 0 100 100" fill="none" xmlns="http://www.w3.org/2000/svg">
<g clip-path="url(#clip0_79_17)">
<path d="M91.6813 49.7938L67.5188 41.1094L57.4188 28.4281C56.5405 27.3544 55.4343 26.4897 54.1802 25.8967C52.9262 25.3037 51.5559 24.9974 50.1688 25H25.1813C23.653 24.9995 22.1479 25.3728 20.797 26.0875C19.4462 26.8021 18.2907 27.8364 17.4313 29.1L8.95625 41.5469C7.19111 44.1373 6.24798 47.1997 6.25 50.3344V75C6.25 75.8288 6.57924 76.6237 7.16529 77.2097C7.75135 77.7958 8.5462 78.125 9.375 78.125H16.0688C16.7485 80.807 18.3032 83.1858 20.4868 84.8849C22.6704 86.5841 25.3582 87.5067 28.125 87.5067C30.8918 87.5067 33.5796 86.5841 35.7632 84.8849C37.9468 83.1858 39.5015 80.807 40.1813 78.125H59.8188C60.4986 80.807 62.0532 83.1858 64.2368 84.8849C66.4204 86.5841 69.1082 87.5067 71.875 87.5067C74.6418 87.5067 77.3296 86.5841 79.5132 84.8849C81.6968 83.1858 83.2515 80.807 83.9313 78.125H90.625C91.4538 78.125 92.2487 77.7958 92.8347 77.2097C93.4208 76.6237 93.75 75.8288 93.75 75V52.7344C93.7499 52.0909 93.5512 51.4631 93.1809 50.9368C92.8106 50.4104 92.2869 50.0113 91.6813 49.7938ZM28.125 81.25C26.8889 81.25 25.6805 80.8835 24.6527 80.1967C23.6249 79.5099 22.8238 78.5338 22.3508 77.3918C21.8777 76.2498 21.7539 74.9931 21.9951 73.7807C22.2363 72.5683 22.8315 71.4547 23.7056 70.5806C24.5797 69.7065 25.6933 69.1113 26.9057 68.8701C28.1181 68.6289 29.3747 68.7527 30.5168 69.2258C31.6588 69.6988 32.6349 70.4999 33.3217 71.5277C34.0084 72.5555 34.375 73.7639 34.375 75C34.3725 76.6569 33.7132 78.2451 32.5417 79.4167C31.3701 80.5883 29.7818 81.2475 28.125 81.25ZM71.875 81.25C70.6389 81.25 69.4305 80.8835 68.4027 80.1967C67.3749 79.5099 66.5738 78.5338 66.1008 77.3918C65.6277 76.2498 65.5039 74.9931 65.7451 73.7807C65.9863 72.5683 66.5815 71.4547 67.4556 70.5806C68.3297 69.7065 69.4433 69.1113 70.6557 68.8701C71.8681 68.6289 73.1247 68.7527 74.2668 69.2258C75.4088 69.6988 76.3849 70.4999 77.0717 71.5277C77.7584 72.5555 78.125 73.7639 78.125 75C78.1225 76.6569 77.4632 78.2451 76.2917 79.4167C75.1201 80.5883 73.5318 81.2475 71.875 81.25ZM87.5 71.875H83.9313C83.2515 69.193 81.6968 66.8143 79.5132 65.1151C77.3296 63.4159 74.6418 62.4934 71.875 62.4934C69.1082 62.4934 66.4204 63.4159 64.2368 65.1151C62.0532 66.8143 60.4986 69.193 59.8188 71.875H40.1813C39.5015 69.193 37.9468 66.8143 35.7632 65.1151C33.5796 63.4159 30.8918 62.4934 28.125 62.4934C25.3582 62.4934 22.6704 63.4159 20.4868 65.1151C18.3032 66.8143 16.7485 69.193 16.0688 71.875H12.5V50.3344C12.4997 48.4528 13.0659 46.6146 14.125 45.0594L22.5969 32.6188C22.8834 32.1971 23.2686 31.852 23.7191 31.6134C24.1695 31.3748 24.6715 31.2501 25.1813 31.25H50.1688C50.6237 31.2486 51.0734 31.3473 51.486 31.539C51.8986 31.7307 52.264 32.0108 52.5563 32.3594L63.1813 45.6969C63.5426 46.1505 64.023 46.4945 64.5688 46.6906L87.5 54.9313V71.875Z" fill="#36BBCE"/>
</g>
<defs>
<clipPath id="clip0_79_17">
<rect width="100" height="100" fill="white"/>
</clipPath>
</defs>
</svg>
