<svg width="100" height="100" viewBox="0 0 100 100" fill="none" xmlns="http://www.w3.org/2000/svg">
<path d="M50 32.0312C46.4461 32.0312 42.972 33.0851 40.0171 35.0595C37.0621 37.0339 34.759 39.8403 33.399 43.1236C32.039 46.407 31.6832 50.0199 32.3765 53.5055C33.0698 56.9911 34.7812 60.1928 37.2942 62.7058C39.8071 65.2188 43.0089 66.9301 46.4945 67.6234C49.9801 68.3168 53.593 67.9609 56.8763 66.6009C60.1597 65.2409 62.966 62.9378 64.9405 59.9829C66.9149 57.0279 67.9687 53.5538 67.9687 50C67.9625 45.2363 66.0674 40.6694 62.699 37.301C59.3305 33.9325 54.7637 32.0374 50 32.0312ZM50 63.2812C47.3732 63.2812 44.8054 62.5023 42.6213 61.0429C40.4372 59.5836 38.7349 57.5093 37.7297 55.0825C36.7245 52.6556 36.4615 49.9852 36.9739 47.4089C37.4864 44.8326 38.7513 42.4661 40.6087 40.6087C42.4661 38.7513 44.8326 37.4864 47.4089 36.9739C49.9853 36.4614 52.6557 36.7245 55.0825 37.7297C57.5093 38.7349 59.5836 40.4372 61.0429 42.6213C62.5023 44.8054 63.2812 47.3732 63.2812 50C63.2812 53.5224 61.882 56.9005 59.3912 59.3912C56.9005 61.8819 53.5224 63.2812 50 63.2812ZM83.5937 51.1093C83.6172 50.3711 83.6172 49.6289 83.5937 48.8906L89.582 41.4062C89.8109 41.1197 89.9694 40.7835 90.0447 40.4246C90.12 40.0657 90.11 39.6941 90.0156 39.3398C89.0787 35.8088 87.6757 32.4184 85.8437 29.2578C85.6618 28.937 85.4067 28.6637 85.0992 28.4601C84.7917 28.2564 84.4406 28.1282 84.0742 28.0859L74.5234 27.0273C74.0208 26.4882 73.5 25.9674 72.9609 25.4648L71.8984 15.9101C71.8561 15.5438 71.7279 15.1926 71.5243 14.8851C71.3206 14.5776 71.0473 14.3225 70.7266 14.1406C67.5698 12.3139 64.1849 10.9136 60.6601 9.97652C60.3049 9.8837 59.9328 9.87564 59.5739 9.95299C59.215 10.0303 58.8792 10.1909 58.5937 10.4218L51.0937 16.4257C50.3543 16.4023 49.6144 16.4023 48.875 16.4257L41.4062 10.4179C41.1197 10.189 40.7835 10.0306 40.4246 9.95526C40.0657 9.87995 39.6942 9.88991 39.3398 9.98433C35.8089 10.9213 32.4184 12.3242 29.2578 14.1562C28.937 14.3382 28.6637 14.5932 28.4601 14.9007C28.2565 15.2082 28.1283 15.5594 28.0859 15.9257L27.043 25.4765C26.5039 25.9817 25.9831 26.5026 25.4805 27.039L15.9219 28.125C15.5555 28.1673 15.2043 28.2955 14.8968 28.4991C14.5894 28.7027 14.3343 28.9761 14.1523 29.2968C12.3256 32.4536 10.9254 35.8385 9.98827 39.3632C9.89769 39.7141 9.8897 40.0812 9.96493 40.4357C10.0402 40.7902 10.1966 41.1224 10.4219 41.4062L16.4258 48.9062C16.4023 49.6456 16.4023 50.3856 16.4258 51.125L10.418 58.6132C10.1891 58.8997 10.0306 59.236 9.95529 59.5949C9.87998 59.9537 9.88994 60.3253 9.98436 60.6796C10.9229 64.2039 12.3258 67.5877 14.1562 70.7421C14.3382 71.0629 14.5933 71.3362 14.9008 71.5399C15.2082 71.7435 15.5594 71.8717 15.9258 71.914L25.4766 72.9726C25.9818 73.5117 26.5026 74.0325 27.0391 74.5351L28.125 84.0781C28.1673 84.4444 28.2955 84.7956 28.4991 85.1031C28.7028 85.4106 28.9761 85.6657 29.2969 85.8476C32.4536 87.6743 35.8385 89.0746 39.3633 90.0117C39.7176 90.1061 40.0892 90.1161 40.4481 90.0407C40.807 89.9654 41.1432 89.807 41.4297 89.5781L48.8906 83.5937C49.6289 83.6171 50.3711 83.6171 51.1094 83.5937L58.6133 89.6015C59.0293 89.9335 59.5459 90.1139 60.0781 90.1132C60.2811 90.1125 60.4832 90.0863 60.6797 90.0351C64.2039 89.0966 67.5877 87.6936 70.7422 85.8632C71.063 85.6813 71.3363 85.4262 71.5399 85.1187C71.7435 84.8112 71.8717 84.4601 71.9141 84.0937L72.9726 74.5429C73.5117 74.0403 74.0325 73.5195 74.5351 72.9804L84.0898 71.9179C84.4562 71.8756 84.8074 71.7474 85.1149 71.5438C85.4223 71.3401 85.6774 71.0668 85.8594 70.7461C87.6868 67.5896 89.087 64.2046 90.0234 60.6796C90.1179 60.3253 90.1278 59.9537 90.0525 59.5949C89.9772 59.236 89.8187 58.8997 89.5898 58.6132L83.5937 51.1093ZM82.3828 67.3711L73.1484 68.3984C72.5714 68.4649 72.0396 68.7433 71.6562 69.1796C70.8842 70.0494 70.0611 70.8724 69.1914 71.6445C68.7551 72.0279 68.4767 72.5597 68.4101 73.1367L67.3828 82.3671C65.2208 83.5201 62.9491 84.4544 60.6016 85.1562L53.3476 79.3515C52.9316 79.0196 52.415 78.8391 51.8828 78.8398H51.7422C50.5817 78.9062 49.4183 78.9062 48.2578 78.8398C47.6782 78.8044 47.1061 78.9853 46.6523 79.3476L39.4023 85.1562C37.0569 84.4505 34.7878 83.5123 32.6289 82.3554L31.6016 73.1289C31.535 72.5518 31.2566 72.0201 30.8203 71.6367C29.9506 70.8646 29.1275 70.0416 28.3555 69.1718C27.972 68.7355 27.4403 68.4571 26.8633 68.3906L17.6328 67.3632C16.481 65.2075 15.5467 62.9424 14.8437 60.6015L20.6484 53.3476C21.0107 52.8938 21.1917 52.3217 21.1562 51.7421C21.0898 50.5816 21.0898 49.4183 21.1562 48.2578C21.1917 47.6782 21.0107 47.1061 20.6484 46.6523L14.8437 39.4023C15.5494 37.0568 16.4877 34.7878 17.6445 32.6289L26.8711 31.6015C27.4481 31.535 27.9799 31.2566 28.3633 30.8203C29.1353 29.9506 29.9584 29.1275 30.8281 28.3554C31.2644 27.972 31.5428 27.4403 31.6094 26.8632L32.6367 17.6328C34.7925 16.481 37.0576 15.5467 39.3984 14.8437L46.6523 20.6484C47.1061 21.0107 47.6782 21.1917 48.2578 21.1562C49.4183 21.0898 50.5817 21.0898 51.7422 21.1562C52.3218 21.1917 52.8939 21.0107 53.3476 20.6484L60.5976 14.8437C62.9431 15.5494 65.2122 16.4876 67.3711 17.6445L68.3984 26.8789C68.465 27.4559 68.7434 27.9876 69.1797 28.3711C70.0494 29.1431 70.8725 29.9662 71.6445 30.8359C72.0279 31.2722 72.5597 31.5506 73.1367 31.6171L82.3672 32.6445C83.5185 34.7978 84.4527 37.0602 85.1562 39.3984L79.3516 46.6523C78.9893 47.1061 78.8083 47.6782 78.8437 48.2578C78.9101 49.4183 78.9101 50.5816 78.8437 51.7421C78.8083 52.3217 78.9893 52.8938 79.3516 53.3476L85.1562 60.5976C84.4531 62.9428 83.5174 65.2119 82.3633 67.3711H82.3828Z" fill="#36BBCE"/>
</svg>
