<svg width="100" height="100" viewBox="0 0 100 100" fill="none" xmlns="http://www.w3.org/2000/svg">
<g clip-path="url(#clip0_79_13)">
<path d="M92.1667 72.5277L56.5278 36.8888C57.5549 32.2365 57.2726 27.3905 55.7122 22.8888C54.1518 18.3872 51.3743 14.4061 47.6881 11.3875C44.002 8.36897 39.5513 6.43105 34.8304 5.78892C30.1095 5.14679 25.3029 5.82559 20.9445 7.74994L17.2222 9.38883L32.1667 24.3333L24.3333 32.1944L9.3889 17.2499L7.75001 20.9444C5.81465 25.3026 5.1275 30.1126 5.76515 34.8384C6.40281 39.5642 8.3402 44.0201 11.3614 47.7095C14.3827 51.3989 18.369 54.1769 22.8763 55.7339C27.3836 57.2909 32.2346 57.5657 36.8889 56.5277L72.5278 92.1666C73.0438 92.6832 73.6565 93.0929 74.3309 93.3725C75.0053 93.6521 75.7283 93.796 76.4583 93.796C77.1884 93.796 77.9114 93.6521 78.5858 93.3725C79.2602 93.0929 79.8729 92.6832 80.3889 92.1666L92.1667 80.3888C92.6832 79.8729 93.093 79.2602 93.3726 78.5857C93.6522 77.9113 93.7961 77.1884 93.7961 76.4583C93.7961 75.7282 93.6522 75.0053 93.3726 74.3308C93.093 73.6564 92.6832 73.0437 92.1667 72.5277ZM76.4445 88.25L38.5556 50.3333L36.9722 50.7777C33.9571 51.6592 30.7779 51.8252 27.6873 51.2623C24.5968 50.6995 21.6802 49.4235 19.1694 47.5356C16.6586 45.6478 14.6228 43.2002 13.2239 40.3876C11.825 37.5749 11.1016 34.4746 11.1111 31.3333C11.1077 29.9522 11.2473 28.5745 11.5278 27.2222L24.3333 40.0277L40.0556 24.3055L27.25 11.5277C30.6664 10.8105 34.2104 10.9912 37.5362 12.0522C40.862 13.1131 43.856 15.0181 46.226 17.5811C48.596 20.1442 50.2611 23.2779 51.0589 26.6764C51.8566 30.075 51.7598 33.6222 50.7778 36.9722L50.3333 38.5555L88.25 76.4722L76.4445 88.25Z" fill="#36BBCE"/>
<path d="M77.9122 77.8091C79.3225 76.3988 79.3225 74.1124 77.9123 72.7022C76.502 71.2919 74.2156 71.2919 72.8054 72.7022C71.3951 74.1124 71.3951 76.3988 72.8054 77.8091C74.2156 79.2193 76.502 79.2193 77.9122 77.8091Z" fill="#36BBCE"/>
</g>
<defs>
<clipPath id="clip0_79_13">
<rect width="100" height="100" fill="white"/>
</clipPath>
</defs>
</svg>
